<mxfile host="app.diagrams.net" modified="2024-02-24T11:59:44.904Z" agent="Mozilla/5.0 (Windows NT 10.0; Win64; x64; rv:122.0) Gecko/20100101 Firefox/122.0" etag="Bq_7XnS5-TckLpyDi6CS" version="23.1.2" type="device">
  <diagram name="Page-1" id="UN0fE-0laq-I7eyZhQYe">
    <mxGraphModel dx="2261" dy="774" grid="1" gridSize="10" guides="1" tooltips="1" connect="1" arrows="1" fold="1" page="1" pageScale="1" pageWidth="827" pageHeight="1169" math="0" shadow="0">
      <root>
        <mxCell id="0" />
        <mxCell id="1" parent="0" />
        <mxCell id="15mg6OBG5XCF4PMPHNtp-2" value="HTML" style="rounded=0;whiteSpace=wrap;html=1;" parent="1" vertex="1">
          <mxGeometry x="360" width="120" height="60" as="geometry" />
        </mxCell>
        <mxCell id="15mg6OBG5XCF4PMPHNtp-3" value="Head" style="rounded=0;whiteSpace=wrap;html=1;" parent="1" vertex="1">
          <mxGeometry x="-80" y="120" width="120" height="60" as="geometry" />
        </mxCell>
        <mxCell id="15mg6OBG5XCF4PMPHNtp-5" value="Body" style="rounded=0;whiteSpace=wrap;html=1;" parent="1" vertex="1">
          <mxGeometry x="800" y="120" width="120" height="60" as="geometry" />
        </mxCell>
        <mxCell id="15mg6OBG5XCF4PMPHNtp-6" value="Link" style="rounded=0;whiteSpace=wrap;html=1;" parent="1" vertex="1">
          <mxGeometry x="-80" y="240" width="120" height="60" as="geometry" />
        </mxCell>
        <mxCell id="15mg6OBG5XCF4PMPHNtp-7" value="Link" style="rounded=0;whiteSpace=wrap;html=1;" parent="1" vertex="1">
          <mxGeometry x="60" y="240" width="120" height="60" as="geometry" />
        </mxCell>
        <mxCell id="15mg6OBG5XCF4PMPHNtp-8" value="Meta" style="rounded=0;whiteSpace=wrap;html=1;" parent="1" vertex="1">
          <mxGeometry x="200" y="240" width="120" height="60" as="geometry" />
        </mxCell>
        <mxCell id="15mg6OBG5XCF4PMPHNtp-9" value="Link" style="rounded=0;whiteSpace=wrap;html=1;" parent="1" vertex="1">
          <mxGeometry x="-220" y="240" width="120" height="60" as="geometry" />
        </mxCell>
        <mxCell id="15mg6OBG5XCF4PMPHNtp-10" value="Title&lt;span style=&quot;white-space: pre;&quot;&gt;&#x9;&lt;/span&gt;" style="rounded=0;whiteSpace=wrap;html=1;" parent="1" vertex="1">
          <mxGeometry x="-360" y="240" width="120" height="60" as="geometry" />
        </mxCell>
        <mxCell id="15mg6OBG5XCF4PMPHNtp-11" value="" style="endArrow=classic;html=1;rounded=0;exitX=0.5;exitY=1;exitDx=0;exitDy=0;entryX=0.5;entryY=0;entryDx=0;entryDy=0;" parent="1" source="15mg6OBG5XCF4PMPHNtp-3" target="15mg6OBG5XCF4PMPHNtp-6" edge="1">
          <mxGeometry width="50" height="50" relative="1" as="geometry">
            <mxPoint x="-130" y="290" as="sourcePoint" />
            <mxPoint x="-80" y="240" as="targetPoint" />
          </mxGeometry>
        </mxCell>
        <mxCell id="15mg6OBG5XCF4PMPHNtp-12" value="" style="endArrow=classic;html=1;rounded=0;exitX=0.5;exitY=1;exitDx=0;exitDy=0;entryX=0.557;entryY=-0.006;entryDx=0;entryDy=0;entryPerimeter=0;" parent="1" source="15mg6OBG5XCF4PMPHNtp-3" target="15mg6OBG5XCF4PMPHNtp-7" edge="1">
          <mxGeometry width="50" height="50" relative="1" as="geometry">
            <mxPoint x="-10" y="190" as="sourcePoint" />
            <mxPoint x="-10" y="250" as="targetPoint" />
          </mxGeometry>
        </mxCell>
        <mxCell id="15mg6OBG5XCF4PMPHNtp-13" value="" style="endArrow=classic;html=1;rounded=0;entryX=0.5;entryY=0;entryDx=0;entryDy=0;" parent="1" target="15mg6OBG5XCF4PMPHNtp-8" edge="1">
          <mxGeometry width="50" height="50" relative="1" as="geometry">
            <mxPoint x="-20" y="180" as="sourcePoint" />
            <mxPoint x="137" y="250" as="targetPoint" />
          </mxGeometry>
        </mxCell>
        <mxCell id="15mg6OBG5XCF4PMPHNtp-14" value="" style="endArrow=classic;html=1;rounded=0;entryX=0.5;entryY=0;entryDx=0;entryDy=0;" parent="1" target="15mg6OBG5XCF4PMPHNtp-10" edge="1">
          <mxGeometry width="50" height="50" relative="1" as="geometry">
            <mxPoint x="-20" y="180" as="sourcePoint" />
            <mxPoint x="270" y="250" as="targetPoint" />
          </mxGeometry>
        </mxCell>
        <mxCell id="15mg6OBG5XCF4PMPHNtp-15" value="" style="endArrow=classic;html=1;rounded=0;entryX=0.5;entryY=0;entryDx=0;entryDy=0;" parent="1" target="15mg6OBG5XCF4PMPHNtp-9" edge="1">
          <mxGeometry width="50" height="50" relative="1" as="geometry">
            <mxPoint x="-20" y="180" as="sourcePoint" />
            <mxPoint x="280" y="260" as="targetPoint" />
          </mxGeometry>
        </mxCell>
        <mxCell id="15mg6OBG5XCF4PMPHNtp-17" value="" style="endArrow=classic;html=1;rounded=0;entryX=0.5;entryY=0;entryDx=0;entryDy=0;exitX=0.5;exitY=1;exitDx=0;exitDy=0;" parent="1" source="15mg6OBG5XCF4PMPHNtp-2" target="15mg6OBG5XCF4PMPHNtp-3" edge="1">
          <mxGeometry width="50" height="50" relative="1" as="geometry">
            <mxPoint x="310" y="140" as="sourcePoint" />
            <mxPoint x="360" y="90" as="targetPoint" />
          </mxGeometry>
        </mxCell>
        <mxCell id="15mg6OBG5XCF4PMPHNtp-19" value="" style="endArrow=classic;html=1;rounded=0;exitX=0.5;exitY=1;exitDx=0;exitDy=0;entryX=0.5;entryY=0;entryDx=0;entryDy=0;" parent="1" source="15mg6OBG5XCF4PMPHNtp-2" target="15mg6OBG5XCF4PMPHNtp-5" edge="1">
          <mxGeometry width="50" height="50" relative="1" as="geometry">
            <mxPoint x="570" y="330" as="sourcePoint" />
            <mxPoint x="620" y="280" as="targetPoint" />
          </mxGeometry>
        </mxCell>
        <mxCell id="15mg6OBG5XCF4PMPHNtp-20" value="h1" style="rounded=0;whiteSpace=wrap;html=1;" parent="1" vertex="1">
          <mxGeometry x="520" y="240" width="120" height="60" as="geometry" />
        </mxCell>
        <mxCell id="15mg6OBG5XCF4PMPHNtp-21" value="Span" style="rounded=0;whiteSpace=wrap;html=1;" parent="1" vertex="1">
          <mxGeometry x="800" y="240" width="120" height="60" as="geometry" />
        </mxCell>
        <mxCell id="XQ5-1rQHwUtrlXhFMyS7-2" style="edgeStyle=orthogonalEdgeStyle;rounded=0;orthogonalLoop=1;jettySize=auto;html=1;" edge="1" parent="1" source="15mg6OBG5XCF4PMPHNtp-22" target="XQ5-1rQHwUtrlXhFMyS7-1">
          <mxGeometry relative="1" as="geometry" />
        </mxCell>
        <mxCell id="15mg6OBG5XCF4PMPHNtp-22" value="div" style="rounded=0;whiteSpace=wrap;html=1;" parent="1" vertex="1">
          <mxGeometry x="1080" y="240" width="120" height="60" as="geometry" />
        </mxCell>
        <mxCell id="15mg6OBG5XCF4PMPHNtp-23" value="Article" style="rounded=0;whiteSpace=wrap;html=1;" parent="1" vertex="1">
          <mxGeometry x="-40" y="370" width="120" height="60" as="geometry" />
        </mxCell>
        <mxCell id="15mg6OBG5XCF4PMPHNtp-24" value="h3" style="rounded=0;whiteSpace=wrap;html=1;" parent="1" vertex="1">
          <mxGeometry x="-120" y="490" width="120" height="60" as="geometry" />
        </mxCell>
        <mxCell id="15mg6OBG5XCF4PMPHNtp-25" value="p" style="rounded=0;whiteSpace=wrap;html=1;" parent="1" vertex="1">
          <mxGeometry x="30" y="490" width="120" height="60" as="geometry" />
        </mxCell>
        <mxCell id="15mg6OBG5XCF4PMPHNtp-26" value="" style="endArrow=classic;html=1;rounded=0;exitX=0.5;exitY=1;exitDx=0;exitDy=0;entryX=0.5;entryY=0;entryDx=0;entryDy=0;" parent="1" source="15mg6OBG5XCF4PMPHNtp-23" target="15mg6OBG5XCF4PMPHNtp-24" edge="1">
          <mxGeometry width="50" height="50" relative="1" as="geometry">
            <mxPoint x="-70" y="460" as="sourcePoint" />
            <mxPoint x="-20" y="410" as="targetPoint" />
          </mxGeometry>
        </mxCell>
        <mxCell id="15mg6OBG5XCF4PMPHNtp-27" value="" style="endArrow=classic;html=1;rounded=0;entryX=0.5;entryY=0;entryDx=0;entryDy=0;" parent="1" target="15mg6OBG5XCF4PMPHNtp-25" edge="1">
          <mxGeometry width="50" height="50" relative="1" as="geometry">
            <mxPoint x="20" y="430" as="sourcePoint" />
            <mxPoint x="-70" y="500" as="targetPoint" />
          </mxGeometry>
        </mxCell>
        <mxCell id="15mg6OBG5XCF4PMPHNtp-28" value="" style="endArrow=classic;html=1;rounded=0;exitX=0.5;exitY=1;exitDx=0;exitDy=0;entryX=0.5;entryY=0;entryDx=0;entryDy=0;" parent="1" source="15mg6OBG5XCF4PMPHNtp-21" target="15mg6OBG5XCF4PMPHNtp-23" edge="1">
          <mxGeometry width="50" height="50" relative="1" as="geometry">
            <mxPoint x="630" y="450" as="sourcePoint" />
            <mxPoint x="680" y="400" as="targetPoint" />
          </mxGeometry>
        </mxCell>
        <mxCell id="15mg6OBG5XCF4PMPHNtp-41" value="Article" style="rounded=0;whiteSpace=wrap;html=1;" parent="1" vertex="1">
          <mxGeometry x="275" y="490" width="120" height="60" as="geometry" />
        </mxCell>
        <mxCell id="15mg6OBG5XCF4PMPHNtp-42" value="h3" style="rounded=0;whiteSpace=wrap;html=1;" parent="1" vertex="1">
          <mxGeometry x="195" y="610" width="120" height="60" as="geometry" />
        </mxCell>
        <mxCell id="15mg6OBG5XCF4PMPHNtp-43" value="p" style="rounded=0;whiteSpace=wrap;html=1;" parent="1" vertex="1">
          <mxGeometry x="345" y="610" width="120" height="60" as="geometry" />
        </mxCell>
        <mxCell id="15mg6OBG5XCF4PMPHNtp-44" value="" style="endArrow=classic;html=1;rounded=0;exitX=0.5;exitY=1;exitDx=0;exitDy=0;entryX=0.5;entryY=0;entryDx=0;entryDy=0;" parent="1" source="15mg6OBG5XCF4PMPHNtp-41" target="15mg6OBG5XCF4PMPHNtp-42" edge="1">
          <mxGeometry width="50" height="50" relative="1" as="geometry">
            <mxPoint x="245" y="580" as="sourcePoint" />
            <mxPoint x="295" y="530" as="targetPoint" />
          </mxGeometry>
        </mxCell>
        <mxCell id="15mg6OBG5XCF4PMPHNtp-45" value="" style="endArrow=classic;html=1;rounded=0;entryX=0.5;entryY=0;entryDx=0;entryDy=0;" parent="1" target="15mg6OBG5XCF4PMPHNtp-43" edge="1">
          <mxGeometry width="50" height="50" relative="1" as="geometry">
            <mxPoint x="335" y="550" as="sourcePoint" />
            <mxPoint x="245" y="620" as="targetPoint" />
          </mxGeometry>
        </mxCell>
        <mxCell id="15mg6OBG5XCF4PMPHNtp-46" value="Article" style="rounded=0;whiteSpace=wrap;html=1;" parent="1" vertex="1">
          <mxGeometry x="575" y="490" width="120" height="60" as="geometry" />
        </mxCell>
        <mxCell id="15mg6OBG5XCF4PMPHNtp-47" value="h3" style="rounded=0;whiteSpace=wrap;html=1;" parent="1" vertex="1">
          <mxGeometry x="495" y="610" width="120" height="60" as="geometry" />
        </mxCell>
        <mxCell id="15mg6OBG5XCF4PMPHNtp-48" value="p" style="rounded=0;whiteSpace=wrap;html=1;" parent="1" vertex="1">
          <mxGeometry x="645" y="610" width="120" height="60" as="geometry" />
        </mxCell>
        <mxCell id="15mg6OBG5XCF4PMPHNtp-49" value="" style="endArrow=classic;html=1;rounded=0;exitX=0.5;exitY=1;exitDx=0;exitDy=0;entryX=0.5;entryY=0;entryDx=0;entryDy=0;" parent="1" source="15mg6OBG5XCF4PMPHNtp-46" target="15mg6OBG5XCF4PMPHNtp-47" edge="1">
          <mxGeometry width="50" height="50" relative="1" as="geometry">
            <mxPoint x="545" y="580" as="sourcePoint" />
            <mxPoint x="595" y="530" as="targetPoint" />
          </mxGeometry>
        </mxCell>
        <mxCell id="15mg6OBG5XCF4PMPHNtp-50" value="" style="endArrow=classic;html=1;rounded=0;entryX=0.5;entryY=0;entryDx=0;entryDy=0;" parent="1" target="15mg6OBG5XCF4PMPHNtp-48" edge="1">
          <mxGeometry width="50" height="50" relative="1" as="geometry">
            <mxPoint x="635" y="550" as="sourcePoint" />
            <mxPoint x="545" y="620" as="targetPoint" />
          </mxGeometry>
        </mxCell>
        <mxCell id="15mg6OBG5XCF4PMPHNtp-53" value="" style="endArrow=classic;html=1;rounded=0;exitX=0.5;exitY=1;exitDx=0;exitDy=0;entryX=0.5;entryY=0;entryDx=0;entryDy=0;" parent="1" source="15mg6OBG5XCF4PMPHNtp-5" target="15mg6OBG5XCF4PMPHNtp-22" edge="1">
          <mxGeometry width="50" height="50" relative="1" as="geometry">
            <mxPoint x="990" y="460" as="sourcePoint" />
            <mxPoint x="1040" y="410" as="targetPoint" />
          </mxGeometry>
        </mxCell>
        <mxCell id="15mg6OBG5XCF4PMPHNtp-54" value="" style="endArrow=classic;html=1;rounded=0;exitX=0.5;exitY=1;exitDx=0;exitDy=0;entryX=0.5;entryY=0;entryDx=0;entryDy=0;" parent="1" source="15mg6OBG5XCF4PMPHNtp-5" target="15mg6OBG5XCF4PMPHNtp-20" edge="1">
          <mxGeometry width="50" height="50" relative="1" as="geometry">
            <mxPoint x="870" y="190" as="sourcePoint" />
            <mxPoint x="1150" y="250" as="targetPoint" />
          </mxGeometry>
        </mxCell>
        <mxCell id="15mg6OBG5XCF4PMPHNtp-55" value="" style="endArrow=classic;html=1;rounded=0;exitX=0.5;exitY=1;exitDx=0;exitDy=0;entryX=0.5;entryY=0;entryDx=0;entryDy=0;" parent="1" source="15mg6OBG5XCF4PMPHNtp-5" target="15mg6OBG5XCF4PMPHNtp-21" edge="1">
          <mxGeometry width="50" height="50" relative="1" as="geometry">
            <mxPoint x="860" y="280" as="sourcePoint" />
            <mxPoint x="910" y="230" as="targetPoint" />
          </mxGeometry>
        </mxCell>
        <mxCell id="15mg6OBG5XCF4PMPHNtp-56" value="Article" style="rounded=0;whiteSpace=wrap;html=1;" parent="1" vertex="1">
          <mxGeometry x="860" y="370" width="120" height="60" as="geometry" />
        </mxCell>
        <mxCell id="15mg6OBG5XCF4PMPHNtp-57" value="h3" style="rounded=0;whiteSpace=wrap;html=1;" parent="1" vertex="1">
          <mxGeometry x="780" y="490" width="120" height="60" as="geometry" />
        </mxCell>
        <mxCell id="15mg6OBG5XCF4PMPHNtp-58" value="p" style="rounded=0;whiteSpace=wrap;html=1;" parent="1" vertex="1">
          <mxGeometry x="930" y="490" width="120" height="60" as="geometry" />
        </mxCell>
        <mxCell id="15mg6OBG5XCF4PMPHNtp-59" value="" style="endArrow=classic;html=1;rounded=0;exitX=0.5;exitY=1;exitDx=0;exitDy=0;entryX=0.5;entryY=0;entryDx=0;entryDy=0;" parent="1" source="15mg6OBG5XCF4PMPHNtp-56" target="15mg6OBG5XCF4PMPHNtp-57" edge="1">
          <mxGeometry width="50" height="50" relative="1" as="geometry">
            <mxPoint x="830" y="460" as="sourcePoint" />
            <mxPoint x="880" y="410" as="targetPoint" />
          </mxGeometry>
        </mxCell>
        <mxCell id="15mg6OBG5XCF4PMPHNtp-60" value="" style="endArrow=classic;html=1;rounded=0;entryX=0.5;entryY=0;entryDx=0;entryDy=0;" parent="1" target="15mg6OBG5XCF4PMPHNtp-58" edge="1">
          <mxGeometry width="50" height="50" relative="1" as="geometry">
            <mxPoint x="920" y="430" as="sourcePoint" />
            <mxPoint x="830" y="500" as="targetPoint" />
          </mxGeometry>
        </mxCell>
        <mxCell id="15mg6OBG5XCF4PMPHNtp-61" value="" style="endArrow=classic;html=1;rounded=0;entryX=0.5;entryY=0;entryDx=0;entryDy=0;" parent="1" target="15mg6OBG5XCF4PMPHNtp-56" edge="1">
          <mxGeometry width="50" height="50" relative="1" as="geometry">
            <mxPoint x="860" y="300" as="sourcePoint" />
            <mxPoint x="1000" y="380" as="targetPoint" />
          </mxGeometry>
        </mxCell>
        <mxCell id="15mg6OBG5XCF4PMPHNtp-62" value="ul" style="rounded=0;whiteSpace=wrap;html=1;" parent="1" vertex="1">
          <mxGeometry x="345" y="720" width="120" height="60" as="geometry" />
        </mxCell>
        <mxCell id="15mg6OBG5XCF4PMPHNtp-63" value="&lt;div&gt;li&lt;/div&gt;" style="rounded=0;whiteSpace=wrap;html=1;" parent="1" vertex="1">
          <mxGeometry x="110" y="840" width="120" height="60" as="geometry" />
        </mxCell>
        <mxCell id="15mg6OBG5XCF4PMPHNtp-64" value="&lt;div&gt;li&lt;/div&gt;" style="rounded=0;whiteSpace=wrap;html=1;" parent="1" vertex="1">
          <mxGeometry x="270" y="840" width="120" height="60" as="geometry" />
        </mxCell>
        <mxCell id="15mg6OBG5XCF4PMPHNtp-65" value="&lt;div&gt;li&lt;/div&gt;" style="rounded=0;whiteSpace=wrap;html=1;" parent="1" vertex="1">
          <mxGeometry x="565" y="840" width="120" height="60" as="geometry" />
        </mxCell>
        <mxCell id="15mg6OBG5XCF4PMPHNtp-66" value="&lt;div&gt;li&lt;/div&gt;" style="rounded=0;whiteSpace=wrap;html=1;" parent="1" vertex="1">
          <mxGeometry x="415" y="840" width="120" height="60" as="geometry" />
        </mxCell>
        <mxCell id="15mg6OBG5XCF4PMPHNtp-67" value="" style="endArrow=classic;html=1;rounded=0;exitX=0.5;exitY=1;exitDx=0;exitDy=0;entryX=0.5;entryY=0;entryDx=0;entryDy=0;" parent="1" source="15mg6OBG5XCF4PMPHNtp-62" target="15mg6OBG5XCF4PMPHNtp-65" edge="1">
          <mxGeometry width="50" height="50" relative="1" as="geometry">
            <mxPoint x="425" y="820" as="sourcePoint" />
            <mxPoint x="475" y="770" as="targetPoint" />
          </mxGeometry>
        </mxCell>
        <mxCell id="15mg6OBG5XCF4PMPHNtp-68" value="" style="endArrow=classic;html=1;rounded=0;exitX=0.5;exitY=1;exitDx=0;exitDy=0;entryX=0.5;entryY=0;entryDx=0;entryDy=0;" parent="1" source="15mg6OBG5XCF4PMPHNtp-62" target="15mg6OBG5XCF4PMPHNtp-66" edge="1">
          <mxGeometry width="50" height="50" relative="1" as="geometry">
            <mxPoint x="335" y="790" as="sourcePoint" />
            <mxPoint x="560" y="850" as="targetPoint" />
          </mxGeometry>
        </mxCell>
        <mxCell id="15mg6OBG5XCF4PMPHNtp-70" value="" style="endArrow=classic;html=1;rounded=0;exitX=0.5;exitY=1;exitDx=0;exitDy=0;entryX=0.5;entryY=0;entryDx=0;entryDy=0;" parent="1" source="15mg6OBG5XCF4PMPHNtp-62" target="15mg6OBG5XCF4PMPHNtp-64" edge="1">
          <mxGeometry width="50" height="50" relative="1" as="geometry">
            <mxPoint x="335" y="790" as="sourcePoint" />
            <mxPoint x="410" y="850" as="targetPoint" />
          </mxGeometry>
        </mxCell>
        <mxCell id="15mg6OBG5XCF4PMPHNtp-71" value="" style="endArrow=classic;html=1;rounded=0;entryX=0.5;entryY=0;entryDx=0;entryDy=0;exitX=0.5;exitY=1;exitDx=0;exitDy=0;" parent="1" target="15mg6OBG5XCF4PMPHNtp-63" edge="1" source="15mg6OBG5XCF4PMPHNtp-62">
          <mxGeometry width="50" height="50" relative="1" as="geometry">
            <mxPoint x="310" y="660" as="sourcePoint" />
            <mxPoint x="245" y="730" as="targetPoint" />
          </mxGeometry>
        </mxCell>
        <mxCell id="15mg6OBG5XCF4PMPHNtp-72" value="" style="endArrow=classic;html=1;rounded=0;exitX=0.5;exitY=1;exitDx=0;exitDy=0;entryX=0.5;entryY=0;entryDx=0;entryDy=0;" parent="1" source="15mg6OBG5XCF4PMPHNtp-43" target="15mg6OBG5XCF4PMPHNtp-62" edge="1">
          <mxGeometry width="50" height="50" relative="1" as="geometry">
            <mxPoint x="425" y="820" as="sourcePoint" />
            <mxPoint x="475" y="770" as="targetPoint" />
          </mxGeometry>
        </mxCell>
        <mxCell id="15mg6OBG5XCF4PMPHNtp-73" value="span" style="rounded=0;whiteSpace=wrap;html=1;" parent="1" vertex="1">
          <mxGeometry x="645" y="720" width="120" height="60" as="geometry" />
        </mxCell>
        <mxCell id="15mg6OBG5XCF4PMPHNtp-74" value="" style="endArrow=classic;html=1;rounded=0;exitX=0.5;exitY=1;exitDx=0;exitDy=0;entryX=0.5;entryY=0;entryDx=0;entryDy=0;" parent="1" source="15mg6OBG5XCF4PMPHNtp-48" target="15mg6OBG5XCF4PMPHNtp-73" edge="1">
          <mxGeometry width="50" height="50" relative="1" as="geometry">
            <mxPoint x="685" y="850" as="sourcePoint" />
            <mxPoint x="735" y="800" as="targetPoint" />
          </mxGeometry>
        </mxCell>
        <mxCell id="15mg6OBG5XCF4PMPHNtp-75" value="span" style="rounded=0;whiteSpace=wrap;html=1;" parent="1" vertex="1">
          <mxGeometry x="930" y="600" width="120" height="60" as="geometry" />
        </mxCell>
        <mxCell id="15mg6OBG5XCF4PMPHNtp-76" value="" style="endArrow=classic;html=1;rounded=0;entryX=0.5;entryY=0;entryDx=0;entryDy=0;exitX=0.5;exitY=1;exitDx=0;exitDy=0;" parent="1" source="15mg6OBG5XCF4PMPHNtp-58" target="15mg6OBG5XCF4PMPHNtp-75" edge="1">
          <mxGeometry width="50" height="50" relative="1" as="geometry">
            <mxPoint x="720" y="730" as="sourcePoint" />
            <mxPoint x="770" y="680" as="targetPoint" />
          </mxGeometry>
        </mxCell>
        <mxCell id="XQ5-1rQHwUtrlXhFMyS7-1" value="a" style="rounded=0;whiteSpace=wrap;html=1;" vertex="1" parent="1">
          <mxGeometry x="1080" y="370" width="120" height="60" as="geometry" />
        </mxCell>
        <mxCell id="XQ5-1rQHwUtrlXhFMyS7-3" value="div" style="rounded=0;whiteSpace=wrap;html=1;" vertex="1" parent="1">
          <mxGeometry x="420" y="370" width="120" height="60" as="geometry" />
        </mxCell>
        <mxCell id="XQ5-1rQHwUtrlXhFMyS7-4" value="" style="endArrow=classic;html=1;rounded=0;exitX=0.5;exitY=1;exitDx=0;exitDy=0;entryX=0.5;entryY=0;entryDx=0;entryDy=0;" edge="1" parent="1" source="15mg6OBG5XCF4PMPHNtp-21" target="XQ5-1rQHwUtrlXhFMyS7-3">
          <mxGeometry width="50" height="50" relative="1" as="geometry">
            <mxPoint x="500" y="610" as="sourcePoint" />
            <mxPoint x="550" y="560" as="targetPoint" />
          </mxGeometry>
        </mxCell>
        <mxCell id="XQ5-1rQHwUtrlXhFMyS7-5" value="" style="endArrow=classic;html=1;rounded=0;exitX=0.5;exitY=1;exitDx=0;exitDy=0;entryX=0.5;entryY=0;entryDx=0;entryDy=0;" edge="1" parent="1" source="XQ5-1rQHwUtrlXhFMyS7-3" target="15mg6OBG5XCF4PMPHNtp-46">
          <mxGeometry width="50" height="50" relative="1" as="geometry">
            <mxPoint x="500" y="610" as="sourcePoint" />
            <mxPoint x="550" y="560" as="targetPoint" />
          </mxGeometry>
        </mxCell>
        <mxCell id="XQ5-1rQHwUtrlXhFMyS7-6" value="" style="endArrow=classic;html=1;rounded=0;exitX=0.5;exitY=1;exitDx=0;exitDy=0;entryX=0.5;entryY=0;entryDx=0;entryDy=0;" edge="1" parent="1" source="XQ5-1rQHwUtrlXhFMyS7-3" target="15mg6OBG5XCF4PMPHNtp-41">
          <mxGeometry width="50" height="50" relative="1" as="geometry">
            <mxPoint x="490" y="440" as="sourcePoint" />
            <mxPoint x="645" y="500" as="targetPoint" />
          </mxGeometry>
        </mxCell>
      </root>
    </mxGraphModel>
  </diagram>
</mxfile>
